<?xml version="1.0" encoding="UTF-8"?> <!-- Generator: Adobe Illustrator 25.2.1, SVG Export Plug-In . SVG Version: 6.00 Build 0) --> <svg xmlns="http://www.w3.org/2000/svg" xmlns:xlink="http://www.w3.org/1999/xlink" version="1.1" id="Logos" x="0px" y="0px" viewBox="0 0 433.17 122.95" style="enable-background:new 0 0 433.17 122.95;" xml:space="preserve"> <style type="text/css"> .st0{fill:#BDD81E;} .st1{fill:#2D4C3A;} </style> <g> <path class="st0" d="M93.15,35.44c0,16.96-10.07,31.93-46.63,31.93c-8.48,0-9.8-0.79-9.8,2.91v8.88c0,9.4,9.8,6.36,9.8,13.12 c0,2.38-1.72,4.63-5.83,4.63c-3.84,0-8.21-0.4-18.15-0.4c-9.14,0-12.45,0.4-16.03,0.4c-4.11,0-5.83-2.25-5.83-4.63 c0-5.96,7.68-3.58,7.68-13.12V19.01c0-9.54-7.68-7.15-7.68-13.12c0-2.38,2.38-4.64,6.49-4.64c3.58,0,6.23,0.4,15.1,0.4 c6.23,0,13.51-1.06,22.52-1.06C77.51,0.59,93.15,14.37,93.15,35.44z M62.28,34.77c0-13.91-7.29-21.33-18.02-21.33 c-7.55,0-7.55,3.71-7.55,5.96v29.94c0,4.11,2.78,5.3,7.55,5.3C55.92,54.65,62.28,47.76,62.28,34.77z"></path> <path class="st1" d="M170.64,79.02c0,1.19-0.4,2.25-1.19,3.71c-3.97,6.76-16.69,16.69-36.04,16.69 c-22.26,0-37.49-14.84-37.49-35.64c0-23.05,18.55-37.23,39.35-37.23c21.07,0,32.86,14.44,32.86,27.29c0,4.64-1.46,5.17-4.24,6.09 l-37.23,11.92c4.24,6.49,10.86,11.39,19.47,11.39c5.7,0,10.33-1.85,15.63-5.43c2.91-1.99,3.84-2.65,5.3-2.65 C169.58,75.18,170.64,77.83,170.64,79.02z M121.62,54.51c0,2.25,0.26,4.51,0.79,6.76l16.82-5.83c2.12-0.66,3.44-1.85,3.44-4.37 c0-5.83-4.77-12.59-10.86-12.59C125.72,38.48,121.62,44.31,121.62,54.51z"></path> <path class="st1" d="M260.18,85.12c0,4.5-6.89,12.45-20.54,12.45c-6.23,0-11.92-2.92-15.5-8.35c-4.77,3.97-13.38,8.88-24.91,8.88 c-15.24,0-24.38-8.61-24.38-20.93c0-12.19,9.94-21.99,28.48-21.99c6.23,0,11.13,0.79,14.44,1.72l-0.13-1.32 c-1.19-8.61-6.36-12.98-12.98-12.98c-5.83,0-10.2,1.72-13.91,3.31c-2.38,1.06-4.64,2.25-6.36,2.25c-1.85,0-3.97-1.59-3.97-4.37 c0-3.31,3.31-6.62,5.7-8.48c5.96-4.64,14.71-7.81,26.76-7.81c16.16,0,27.69,6.22,29.81,21.99l2.92,21.33 c1.06,7.82,4.11,9.67,11.79,11.13C258.86,82.2,260.18,83.26,260.18,85.12z M221.1,80.61l-1.99-14.18c-1.59-0.4-3.84-0.66-6.62-0.66 c-6.36,0-11.39,2.38-11.39,8.48c0,6.23,4.37,9.67,9.8,9.67C214.87,83.92,218.85,82.2,221.1,80.61z"></path> <path class="st1" d="M268.91,92.4l-4.5-9.94c-1.72-3.71-3.44-6.49-3.44-9.41c0-3.05,2.12-4.5,4.11-4.5c1.99,0,3.45,1.06,5.7,3.18 c7.42,7.15,17.88,15.1,29.68,15.1c5.83,0,9.14-2.65,9.14-5.56c0-4.64-8.35-5.43-17.75-7.55c-15.37-3.31-29.68-9.54-29.68-23.98 c0-13.12,12.32-21.86,27.56-21.86c7.69,0,13.78,2.12,16.43,2.12c2.91,0,2.91-2.65,6.36-2.65c3.31,0,5.03,2.65,6.89,5.43l5.43,8.21 c1.99,3.05,3.71,5.96,3.71,8.35c0,2.38-1.72,3.97-3.58,3.97c-2.25,0-3.71-1.59-5.83-3.31c-7.82-6.23-17.49-11.26-25.44-11.26 c-4.11,0-7.15,1.72-7.15,4.5c0,4.37,7.42,5.3,16.69,7.55c15.63,3.58,30.6,8.48,30.6,23.72c0,15.5-15.23,23.45-33.25,23.45 c-9.41,0-14.57-2.12-17.49-2.12c-3.84,0-4.11,3.58-7.68,3.58C272.09,99.43,270.37,95.72,268.91,92.4z"></path> <path class="st1" d="M416.48,33.32c0,5.17-6.1,3.58-11.79,16.69l-20.67,48.36c-6.49,15.37-16.03,24.11-28.75,24.11 c-5.7,0-10.46-1.46-12.19-3.58c-2.78-3.45-6.09-14.18-6.09-20.4c0-3.31,1.99-5.69,4.37-5.69c1.46,0,2.78,0.53,4.11,2.25 c5.96,7.68,9.27,10.46,14.31,10.46c3.44,0,5.83-3.05,7.82-7.15l-24.77-48.36c-6.62-12.98-12.06-11.53-12.06-16.69 c0-2.65,2.25-4.24,5.03-4.24c3.44,0,8.35,0.4,16.69,0.4c8.08,0,12.19-0.4,16.16-0.4c4.24,0,6.23,1.72,6.23,4.24 c0,5.3-5.7,4.24-5.7,10.33c0,2.65,0.93,5.03,2.38,8.74l9.8,21.07l8.61-21.07c1.59-4.24,2.38-6.62,2.38-9.01 c0-5.17-5.96-4.77-5.96-10.07c0-2.52,1.85-4.24,6.09-4.24c2.78,0,5.96,0.4,9.54,0.4c3.31,0,7.02-0.4,9.41-0.4 C414.36,29.08,416.48,30.8,416.48,33.32z"></path> </g> <circle class="st0" cx="419.82" cy="84.47" r="13.35"></circle> </svg> 